<mxfile host="app.diagrams.net" agent="Mozilla/5.0 (Windows NT 10.0; Win64; x64) AppleWebKit/537.36 (KHTML, like Gecko) Chrome/130.0.0.0 Safari/537.36 Edg/130.0.0.0" version="24.8.4">
  <diagram name="Page-1" id="thldua14ZTXM0ZRRVlnX">
    <mxGraphModel dx="1687" dy="1013" grid="0" gridSize="10" guides="1" tooltips="1" connect="1" arrows="1" fold="1" page="1" pageScale="1" pageWidth="2339" pageHeight="3300" math="0" shadow="0">
      <root>
        <mxCell id="0" />
        <mxCell id="1" parent="0" />
        <mxCell id="zrPP4EijBJYdfeZ9ZNH7-3" value="" style="ellipse;whiteSpace=wrap;html=1;aspect=fixed;" parent="1" vertex="1">
          <mxGeometry x="350" y="100" width="30" height="30" as="geometry" />
        </mxCell>
        <mxCell id="zrPP4EijBJYdfeZ9ZNH7-4" value="" style="endArrow=classic;html=1;rounded=0;entryX=0.5;entryY=0;entryDx=0;entryDy=0;" parent="1" target="zrPP4EijBJYdfeZ9ZNH7-3" edge="1">
          <mxGeometry width="50" height="50" relative="1" as="geometry">
            <mxPoint x="365" y="70" as="sourcePoint" />
            <mxPoint x="565" as="targetPoint" />
          </mxGeometry>
        </mxCell>
        <mxCell id="zrPP4EijBJYdfeZ9ZNH7-5" value="Start" style="text;html=1;align=center;verticalAlign=middle;whiteSpace=wrap;rounded=0;" parent="1" vertex="1">
          <mxGeometry x="335" y="40" width="60" height="30" as="geometry" />
        </mxCell>
        <mxCell id="zrPP4EijBJYdfeZ9ZNH7-6" value="" style="endArrow=classic;html=1;rounded=0;entryX=0.5;entryY=0;entryDx=0;entryDy=0;exitX=0.5;exitY=1;exitDx=0;exitDy=0;" parent="1" source="zrPP4EijBJYdfeZ9ZNH7-3" edge="1">
          <mxGeometry width="50" height="50" relative="1" as="geometry">
            <mxPoint x="400" y="280" as="sourcePoint" />
            <mxPoint x="365" y="180" as="targetPoint" />
          </mxGeometry>
        </mxCell>
        <mxCell id="zrPP4EijBJYdfeZ9ZNH7-7" style="edgeStyle=orthogonalEdgeStyle;rounded=0;orthogonalLoop=1;jettySize=auto;html=1;entryX=0;entryY=0.5;entryDx=0;entryDy=0;" parent="1" source="zrPP4EijBJYdfeZ9ZNH7-9" target="zrPP4EijBJYdfeZ9ZNH7-17" edge="1">
          <mxGeometry relative="1" as="geometry">
            <mxPoint x="305" y="210" as="targetPoint" />
            <Array as="points">
              <mxPoint x="260" y="375" />
              <mxPoint x="260" y="210" />
            </Array>
          </mxGeometry>
        </mxCell>
        <mxCell id="zrPP4EijBJYdfeZ9ZNH7-8" style="edgeStyle=orthogonalEdgeStyle;rounded=0;orthogonalLoop=1;jettySize=auto;html=1;entryX=0.5;entryY=0;entryDx=0;entryDy=0;" parent="1" source="zrPP4EijBJYdfeZ9ZNH7-9" target="zrPP4EijBJYdfeZ9ZNH7-13" edge="1">
          <mxGeometry relative="1" as="geometry" />
        </mxCell>
        <mxCell id="zrPP4EijBJYdfeZ9ZNH7-9" value="Kiểm tra dữ liệu đầu vào" style="rhombus;whiteSpace=wrap;html=1;" parent="1" vertex="1">
          <mxGeometry x="290" y="310" width="150" height="130" as="geometry" />
        </mxCell>
        <mxCell id="zrPP4EijBJYdfeZ9ZNH7-10" value="" style="endArrow=classic;html=1;rounded=0;entryX=0.5;entryY=0;entryDx=0;entryDy=0;exitX=0.5;exitY=1;exitDx=0;exitDy=0;" parent="1" target="zrPP4EijBJYdfeZ9ZNH7-9" edge="1">
          <mxGeometry width="50" height="50" relative="1" as="geometry">
            <mxPoint x="365" y="240" as="sourcePoint" />
            <mxPoint x="450" y="330" as="targetPoint" />
          </mxGeometry>
        </mxCell>
        <mxCell id="zrPP4EijBJYdfeZ9ZNH7-11" value="không hợp lệ" style="text;html=1;align=center;verticalAlign=middle;whiteSpace=wrap;rounded=0;" parent="1" vertex="1">
          <mxGeometry x="190" y="260" width="60" height="30" as="geometry" />
        </mxCell>
        <mxCell id="zrPP4EijBJYdfeZ9ZNH7-12" style="edgeStyle=orthogonalEdgeStyle;rounded=0;orthogonalLoop=1;jettySize=auto;html=1;entryX=0.5;entryY=0;entryDx=0;entryDy=0;" parent="1" source="zrPP4EijBJYdfeZ9ZNH7-13" target="zrPP4EijBJYdfeZ9ZNH7-15" edge="1">
          <mxGeometry relative="1" as="geometry" />
        </mxCell>
        <mxCell id="zrPP4EijBJYdfeZ9ZNH7-13" value="Chuyển đến trang chủ" style="rounded=1;whiteSpace=wrap;html=1;" parent="1" vertex="1">
          <mxGeometry x="305" y="510" width="120" height="60" as="geometry" />
        </mxCell>
        <mxCell id="zrPP4EijBJYdfeZ9ZNH7-14" value="Hợp lệ" style="text;html=1;align=center;verticalAlign=middle;whiteSpace=wrap;rounded=0;" parent="1" vertex="1">
          <mxGeometry x="290" y="460" width="60" height="30" as="geometry" />
        </mxCell>
        <mxCell id="zrPP4EijBJYdfeZ9ZNH7-15" value="" style="ellipse;html=1;shape=endState;fillColor=#000000;strokeColor=#ff0000;" parent="1" vertex="1">
          <mxGeometry x="350" y="640" width="30" height="30" as="geometry" />
        </mxCell>
        <mxCell id="zrPP4EijBJYdfeZ9ZNH7-16" value="End" style="text;html=1;align=center;verticalAlign=middle;whiteSpace=wrap;rounded=0;" parent="1" vertex="1">
          <mxGeometry x="335" y="690" width="60" height="30" as="geometry" />
        </mxCell>
        <mxCell id="zrPP4EijBJYdfeZ9ZNH7-17" value="Nhập email và mật khẩu" style="shape=parallelogram;perimeter=parallelogramPerimeter;whiteSpace=wrap;html=1;fixedSize=1;" parent="1" vertex="1">
          <mxGeometry x="280" y="180" width="170" height="60" as="geometry" />
        </mxCell>
        <mxCell id="zrPP4EijBJYdfeZ9ZNH7-18" value="Đăng nhập:" style="text;html=1;align=center;verticalAlign=middle;resizable=0;points=[];autosize=1;strokeColor=none;fillColor=none;" parent="1" vertex="1">
          <mxGeometry x="110" y="40" width="80" height="26" as="geometry" />
        </mxCell>
        <mxCell id="zrPP4EijBJYdfeZ9ZNH7-19" value="" style="ellipse;whiteSpace=wrap;html=1;aspect=fixed;" parent="1" vertex="1">
          <mxGeometry x="737" y="100" width="30" height="30" as="geometry" />
        </mxCell>
        <mxCell id="zrPP4EijBJYdfeZ9ZNH7-20" value="" style="endArrow=classic;html=1;rounded=0;entryX=0.5;entryY=0;entryDx=0;entryDy=0;" parent="1" target="zrPP4EijBJYdfeZ9ZNH7-19" edge="1">
          <mxGeometry width="50" height="50" relative="1" as="geometry">
            <mxPoint x="752" y="70" as="sourcePoint" />
            <mxPoint x="952" as="targetPoint" />
          </mxGeometry>
        </mxCell>
        <mxCell id="zrPP4EijBJYdfeZ9ZNH7-21" value="Start" style="text;html=1;align=center;verticalAlign=middle;whiteSpace=wrap;rounded=0;" parent="1" vertex="1">
          <mxGeometry x="722" y="40" width="60" height="30" as="geometry" />
        </mxCell>
        <mxCell id="zrPP4EijBJYdfeZ9ZNH7-22" value="" style="endArrow=classic;html=1;rounded=0;entryX=0.5;entryY=0;entryDx=0;entryDy=0;exitX=0.5;exitY=1;exitDx=0;exitDy=0;" parent="1" source="zrPP4EijBJYdfeZ9ZNH7-19" edge="1">
          <mxGeometry width="50" height="50" relative="1" as="geometry">
            <mxPoint x="787" y="280" as="sourcePoint" />
            <mxPoint x="752" y="180" as="targetPoint" />
          </mxGeometry>
        </mxCell>
        <mxCell id="zrPP4EijBJYdfeZ9ZNH7-23" style="edgeStyle=orthogonalEdgeStyle;rounded=0;orthogonalLoop=1;jettySize=auto;html=1;entryX=0;entryY=0.5;entryDx=0;entryDy=0;" parent="1" source="zrPP4EijBJYdfeZ9ZNH7-25" target="zrPP4EijBJYdfeZ9ZNH7-33" edge="1">
          <mxGeometry relative="1" as="geometry">
            <mxPoint x="692" y="210" as="targetPoint" />
            <Array as="points">
              <mxPoint x="647" y="375" />
              <mxPoint x="647" y="210" />
            </Array>
          </mxGeometry>
        </mxCell>
        <mxCell id="zrPP4EijBJYdfeZ9ZNH7-24" style="edgeStyle=orthogonalEdgeStyle;rounded=0;orthogonalLoop=1;jettySize=auto;html=1;" parent="1" source="zrPP4EijBJYdfeZ9ZNH7-25" target="zrPP4EijBJYdfeZ9ZNH7-82" edge="1">
          <mxGeometry relative="1" as="geometry">
            <mxPoint x="752" y="510" as="targetPoint" />
          </mxGeometry>
        </mxCell>
        <mxCell id="zrPP4EijBJYdfeZ9ZNH7-25" value="Kiểm tra dữ liệu đầu vào" style="rhombus;whiteSpace=wrap;html=1;" parent="1" vertex="1">
          <mxGeometry x="677" y="310" width="150" height="130" as="geometry" />
        </mxCell>
        <mxCell id="zrPP4EijBJYdfeZ9ZNH7-26" value="" style="endArrow=classic;html=1;rounded=0;entryX=0.5;entryY=0;entryDx=0;entryDy=0;exitX=0.5;exitY=1;exitDx=0;exitDy=0;" parent="1" target="zrPP4EijBJYdfeZ9ZNH7-25" edge="1">
          <mxGeometry width="50" height="50" relative="1" as="geometry">
            <mxPoint x="752" y="240" as="sourcePoint" />
            <mxPoint x="837" y="330" as="targetPoint" />
          </mxGeometry>
        </mxCell>
        <mxCell id="zrPP4EijBJYdfeZ9ZNH7-27" value="không hợp lệ" style="text;html=1;align=center;verticalAlign=middle;whiteSpace=wrap;rounded=0;" parent="1" vertex="1">
          <mxGeometry x="577" y="260" width="60" height="30" as="geometry" />
        </mxCell>
        <mxCell id="zrPP4EijBJYdfeZ9ZNH7-28" style="edgeStyle=orthogonalEdgeStyle;rounded=0;orthogonalLoop=1;jettySize=auto;html=1;entryX=0.5;entryY=0;entryDx=0;entryDy=0;" parent="1" source="zrPP4EijBJYdfeZ9ZNH7-29" target="zrPP4EijBJYdfeZ9ZNH7-31" edge="1">
          <mxGeometry relative="1" as="geometry" />
        </mxCell>
        <mxCell id="zrPP4EijBJYdfeZ9ZNH7-29" value="Chuyển đến trang đăng nhập" style="rounded=1;whiteSpace=wrap;html=1;" parent="1" vertex="1">
          <mxGeometry x="692" y="675" width="120" height="60" as="geometry" />
        </mxCell>
        <mxCell id="zrPP4EijBJYdfeZ9ZNH7-30" value="Hợp lệ" style="text;html=1;align=center;verticalAlign=middle;whiteSpace=wrap;rounded=0;" parent="1" vertex="1">
          <mxGeometry x="683" y="455" width="60" height="30" as="geometry" />
        </mxCell>
        <mxCell id="zrPP4EijBJYdfeZ9ZNH7-31" value="" style="ellipse;html=1;shape=endState;fillColor=#000000;strokeColor=#ff0000;" parent="1" vertex="1">
          <mxGeometry x="737" y="805" width="30" height="30" as="geometry" />
        </mxCell>
        <mxCell id="zrPP4EijBJYdfeZ9ZNH7-32" value="End" style="text;html=1;align=center;verticalAlign=middle;whiteSpace=wrap;rounded=0;" parent="1" vertex="1">
          <mxGeometry x="722" y="855" width="60" height="30" as="geometry" />
        </mxCell>
        <mxCell id="zrPP4EijBJYdfeZ9ZNH7-33" value="Nhập họ, tên, mssv, ngày&lt;div&gt;sinh, email, mật khẩu và&lt;/div&gt;&lt;div&gt;xác nhận mật khẩu&lt;/div&gt;" style="shape=parallelogram;perimeter=parallelogramPerimeter;whiteSpace=wrap;html=1;fixedSize=1;" parent="1" vertex="1">
          <mxGeometry x="667" y="180" width="201" height="59" as="geometry" />
        </mxCell>
        <mxCell id="zrPP4EijBJYdfeZ9ZNH7-34" value="Đăng ký:" style="text;html=1;align=center;verticalAlign=middle;resizable=0;points=[];autosize=1;strokeColor=none;fillColor=none;" parent="1" vertex="1">
          <mxGeometry x="512" y="40" width="65" height="26" as="geometry" />
        </mxCell>
        <mxCell id="zrPP4EijBJYdfeZ9ZNH7-35" value="" style="ellipse;whiteSpace=wrap;html=1;aspect=fixed;" parent="1" vertex="1">
          <mxGeometry x="1376" y="100" width="30" height="30" as="geometry" />
        </mxCell>
        <mxCell id="zrPP4EijBJYdfeZ9ZNH7-36" value="" style="endArrow=classic;html=1;rounded=0;entryX=0.5;entryY=0;entryDx=0;entryDy=0;" parent="1" target="zrPP4EijBJYdfeZ9ZNH7-35" edge="1">
          <mxGeometry width="50" height="50" relative="1" as="geometry">
            <mxPoint x="1391" y="70" as="sourcePoint" />
            <mxPoint x="1591" as="targetPoint" />
          </mxGeometry>
        </mxCell>
        <mxCell id="zrPP4EijBJYdfeZ9ZNH7-37" value="Start" style="text;html=1;align=center;verticalAlign=middle;whiteSpace=wrap;rounded=0;" parent="1" vertex="1">
          <mxGeometry x="1361" y="40" width="60" height="30" as="geometry" />
        </mxCell>
        <mxCell id="zrPP4EijBJYdfeZ9ZNH7-38" value="" style="endArrow=classic;html=1;rounded=0;exitX=0.5;exitY=1;exitDx=0;exitDy=0;" parent="1" source="zrPP4EijBJYdfeZ9ZNH7-35" target="zrPP4EijBJYdfeZ9ZNH7-71" edge="1">
          <mxGeometry width="50" height="50" relative="1" as="geometry">
            <mxPoint x="1426" y="280" as="sourcePoint" />
            <mxPoint x="1391" y="180" as="targetPoint" />
          </mxGeometry>
        </mxCell>
        <mxCell id="zrPP4EijBJYdfeZ9ZNH7-39" style="edgeStyle=orthogonalEdgeStyle;rounded=0;orthogonalLoop=1;jettySize=auto;html=1;entryX=0;entryY=0.5;entryDx=0;entryDy=0;" parent="1" source="zrPP4EijBJYdfeZ9ZNH7-41" target="zrPP4EijBJYdfeZ9ZNH7-49" edge="1">
          <mxGeometry relative="1" as="geometry">
            <mxPoint x="1331" y="312" as="targetPoint" />
            <Array as="points">
              <mxPoint x="1286" y="477" />
              <mxPoint x="1286" y="312" />
            </Array>
          </mxGeometry>
        </mxCell>
        <mxCell id="zrPP4EijBJYdfeZ9ZNH7-40" style="edgeStyle=orthogonalEdgeStyle;rounded=0;orthogonalLoop=1;jettySize=auto;html=1;" parent="1" source="zrPP4EijBJYdfeZ9ZNH7-41" target="zrPP4EijBJYdfeZ9ZNH7-75" edge="1">
          <mxGeometry relative="1" as="geometry">
            <mxPoint x="1391" y="612" as="targetPoint" />
          </mxGeometry>
        </mxCell>
        <mxCell id="zrPP4EijBJYdfeZ9ZNH7-41" value="Kiểm tra dữ liệu đầu vào" style="rhombus;whiteSpace=wrap;html=1;" parent="1" vertex="1">
          <mxGeometry x="1316" y="412" width="150" height="130" as="geometry" />
        </mxCell>
        <mxCell id="zrPP4EijBJYdfeZ9ZNH7-42" value="" style="endArrow=classic;html=1;rounded=0;entryX=0.5;entryY=0;entryDx=0;entryDy=0;exitX=0.5;exitY=1;exitDx=0;exitDy=0;" parent="1" target="zrPP4EijBJYdfeZ9ZNH7-41" edge="1">
          <mxGeometry width="50" height="50" relative="1" as="geometry">
            <mxPoint x="1391" y="342" as="sourcePoint" />
            <mxPoint x="1476" y="432" as="targetPoint" />
          </mxGeometry>
        </mxCell>
        <mxCell id="zrPP4EijBJYdfeZ9ZNH7-43" value="không hợp lệ" style="text;html=1;align=center;verticalAlign=middle;whiteSpace=wrap;rounded=0;" parent="1" vertex="1">
          <mxGeometry x="1216" y="362" width="60" height="30" as="geometry" />
        </mxCell>
        <mxCell id="zrPP4EijBJYdfeZ9ZNH7-44" style="edgeStyle=orthogonalEdgeStyle;rounded=0;orthogonalLoop=1;jettySize=auto;html=1;entryX=0.5;entryY=0;entryDx=0;entryDy=0;" parent="1" source="zrPP4EijBJYdfeZ9ZNH7-45" target="zrPP4EijBJYdfeZ9ZNH7-47" edge="1">
          <mxGeometry relative="1" as="geometry" />
        </mxCell>
        <mxCell id="zrPP4EijBJYdfeZ9ZNH7-45" value="Reload trang" style="rounded=1;whiteSpace=wrap;html=1;" parent="1" vertex="1">
          <mxGeometry x="1331" y="789" width="120" height="60" as="geometry" />
        </mxCell>
        <mxCell id="zrPP4EijBJYdfeZ9ZNH7-46" value="Hợp lệ" style="text;html=1;align=center;verticalAlign=middle;whiteSpace=wrap;rounded=0;" parent="1" vertex="1">
          <mxGeometry x="1319" y="557" width="60" height="30" as="geometry" />
        </mxCell>
        <mxCell id="zrPP4EijBJYdfeZ9ZNH7-47" value="" style="ellipse;html=1;shape=endState;fillColor=#000000;strokeColor=#ff0000;" parent="1" vertex="1">
          <mxGeometry x="1376" y="914" width="30" height="30" as="geometry" />
        </mxCell>
        <mxCell id="zrPP4EijBJYdfeZ9ZNH7-48" value="End" style="text;html=1;align=center;verticalAlign=middle;whiteSpace=wrap;rounded=0;" parent="1" vertex="1">
          <mxGeometry x="1361" y="962" width="60" height="30" as="geometry" />
        </mxCell>
        <mxCell id="zrPP4EijBJYdfeZ9ZNH7-49" value="Sửa họ, tên, bios, giới&lt;div&gt;tính hoặc ảnh đại diện&lt;/div&gt;" style="shape=parallelogram;perimeter=parallelogramPerimeter;whiteSpace=wrap;html=1;fixedSize=1;" parent="1" vertex="1">
          <mxGeometry x="1306" y="282" width="170" height="60" as="geometry" />
        </mxCell>
        <mxCell id="zrPP4EijBJYdfeZ9ZNH7-50" value="Chỉnh sửa hồ sơ" style="text;html=1;align=center;verticalAlign=middle;resizable=0;points=[];autosize=1;strokeColor=none;fillColor=none;" parent="1" vertex="1">
          <mxGeometry x="1109" y="42" width="107" height="26" as="geometry" />
        </mxCell>
        <mxCell id="zrPP4EijBJYdfeZ9ZNH7-51" value="" style="ellipse;whiteSpace=wrap;html=1;aspect=fixed;" parent="1" vertex="1">
          <mxGeometry x="339" y="1085" width="30" height="30" as="geometry" />
        </mxCell>
        <mxCell id="zrPP4EijBJYdfeZ9ZNH7-52" value="" style="endArrow=classic;html=1;rounded=0;entryX=0.5;entryY=0;entryDx=0;entryDy=0;" parent="1" target="zrPP4EijBJYdfeZ9ZNH7-51" edge="1">
          <mxGeometry width="50" height="50" relative="1" as="geometry">
            <mxPoint x="354" y="1055" as="sourcePoint" />
            <mxPoint x="554" y="985" as="targetPoint" />
          </mxGeometry>
        </mxCell>
        <mxCell id="zrPP4EijBJYdfeZ9ZNH7-53" value="Start" style="text;html=1;align=center;verticalAlign=middle;whiteSpace=wrap;rounded=0;" parent="1" vertex="1">
          <mxGeometry x="324" y="1025" width="60" height="30" as="geometry" />
        </mxCell>
        <mxCell id="zrPP4EijBJYdfeZ9ZNH7-54" value="" style="endArrow=classic;html=1;rounded=0;entryX=0.5;entryY=0;entryDx=0;entryDy=0;exitX=0.5;exitY=1;exitDx=0;exitDy=0;" parent="1" source="zrPP4EijBJYdfeZ9ZNH7-51" edge="1">
          <mxGeometry width="50" height="50" relative="1" as="geometry">
            <mxPoint x="389" y="1265" as="sourcePoint" />
            <mxPoint x="354" y="1165" as="targetPoint" />
          </mxGeometry>
        </mxCell>
        <mxCell id="zrPP4EijBJYdfeZ9ZNH7-55" style="edgeStyle=orthogonalEdgeStyle;rounded=0;orthogonalLoop=1;jettySize=auto;html=1;entryX=0;entryY=0.5;entryDx=0;entryDy=0;" parent="1" source="zrPP4EijBJYdfeZ9ZNH7-57" target="zrPP4EijBJYdfeZ9ZNH7-65" edge="1">
          <mxGeometry relative="1" as="geometry">
            <mxPoint x="294" y="1195" as="targetPoint" />
            <Array as="points">
              <mxPoint x="232" y="1472" />
              <mxPoint x="232" y="1195" />
            </Array>
          </mxGeometry>
        </mxCell>
        <mxCell id="zrPP4EijBJYdfeZ9ZNH7-56" style="edgeStyle=orthogonalEdgeStyle;rounded=0;orthogonalLoop=1;jettySize=auto;html=1;" parent="1" source="zrPP4EijBJYdfeZ9ZNH7-57" target="zrPP4EijBJYdfeZ9ZNH7-89" edge="1">
          <mxGeometry relative="1" as="geometry" />
        </mxCell>
        <mxCell id="zrPP4EijBJYdfeZ9ZNH7-57" value="Kiểm tra dữ liệu đầu vào" style="rhombus;whiteSpace=wrap;html=1;" parent="1" vertex="1">
          <mxGeometry x="279" y="1407" width="150" height="130" as="geometry" />
        </mxCell>
        <mxCell id="zrPP4EijBJYdfeZ9ZNH7-58" value="" style="endArrow=classic;html=1;rounded=0;entryX=0.5;entryY=0;entryDx=0;entryDy=0;exitX=0.5;exitY=1;exitDx=0;exitDy=0;" parent="1" target="zrPP4EijBJYdfeZ9ZNH7-67" edge="1">
          <mxGeometry width="50" height="50" relative="1" as="geometry">
            <mxPoint x="354" y="1225" as="sourcePoint" />
            <mxPoint x="439" y="1315" as="targetPoint" />
          </mxGeometry>
        </mxCell>
        <mxCell id="zrPP4EijBJYdfeZ9ZNH7-59" value="không hợp lệ" style="text;html=1;align=center;verticalAlign=middle;whiteSpace=wrap;rounded=0;" parent="1" vertex="1">
          <mxGeometry x="166" y="1309" width="60" height="30" as="geometry" />
        </mxCell>
        <mxCell id="zrPP4EijBJYdfeZ9ZNH7-60" style="edgeStyle=orthogonalEdgeStyle;rounded=0;orthogonalLoop=1;jettySize=auto;html=1;entryX=0.5;entryY=0;entryDx=0;entryDy=0;" parent="1" source="zrPP4EijBJYdfeZ9ZNH7-61" target="zrPP4EijBJYdfeZ9ZNH7-63" edge="1">
          <mxGeometry relative="1" as="geometry" />
        </mxCell>
        <mxCell id="zrPP4EijBJYdfeZ9ZNH7-61" value="Reload trang" style="rounded=1;whiteSpace=wrap;html=1;" parent="1" vertex="1">
          <mxGeometry x="294" y="1808" width="120" height="60" as="geometry" />
        </mxCell>
        <mxCell id="zrPP4EijBJYdfeZ9ZNH7-62" value="Hợp lệ" style="text;html=1;align=center;verticalAlign=middle;whiteSpace=wrap;rounded=0;" parent="1" vertex="1">
          <mxGeometry x="287" y="1569" width="60" height="30" as="geometry" />
        </mxCell>
        <mxCell id="zrPP4EijBJYdfeZ9ZNH7-63" value="" style="ellipse;html=1;shape=endState;fillColor=#000000;strokeColor=#ff0000;" parent="1" vertex="1">
          <mxGeometry x="339" y="1939" width="30" height="30" as="geometry" />
        </mxCell>
        <mxCell id="zrPP4EijBJYdfeZ9ZNH7-64" value="End" style="text;html=1;align=center;verticalAlign=middle;whiteSpace=wrap;rounded=0;" parent="1" vertex="1">
          <mxGeometry x="324" y="1985" width="60" height="30" as="geometry" />
        </mxCell>
        <mxCell id="zrPP4EijBJYdfeZ9ZNH7-65" value="&amp;nbsp; &amp;nbsp; Nhập nội dung bài đăng (có thể thêm hình ảnh hoặc tệp)" style="shape=parallelogram;perimeter=parallelogramPerimeter;whiteSpace=wrap;html=1;fixedSize=1;" parent="1" vertex="1">
          <mxGeometry x="269" y="1165" width="180" height="60" as="geometry" />
        </mxCell>
        <mxCell id="zrPP4EijBJYdfeZ9ZNH7-66" value="Đăng bài:" style="text;html=1;align=center;verticalAlign=middle;resizable=0;points=[];autosize=1;strokeColor=none;fillColor=none;" parent="1" vertex="1">
          <mxGeometry x="110" y="1025" width="69" height="26" as="geometry" />
        </mxCell>
        <mxCell id="zrPP4EijBJYdfeZ9ZNH7-68" style="edgeStyle=orthogonalEdgeStyle;rounded=0;orthogonalLoop=1;jettySize=auto;html=1;exitX=0.5;exitY=1;exitDx=0;exitDy=0;" parent="1" source="zrPP4EijBJYdfeZ9ZNH7-67" target="zrPP4EijBJYdfeZ9ZNH7-57" edge="1">
          <mxGeometry relative="1" as="geometry" />
        </mxCell>
        <mxCell id="zrPP4EijBJYdfeZ9ZNH7-67" value="Chọn phạm vi hiển thị" style="shape=parallelogram;perimeter=parallelogramPerimeter;whiteSpace=wrap;html=1;fixedSize=1;" parent="1" vertex="1">
          <mxGeometry x="265.5" y="1286" width="177" height="60" as="geometry" />
        </mxCell>
        <mxCell id="zrPP4EijBJYdfeZ9ZNH7-70" style="edgeStyle=orthogonalEdgeStyle;rounded=0;orthogonalLoop=1;jettySize=auto;html=1;" parent="1" source="zrPP4EijBJYdfeZ9ZNH7-82" target="zrPP4EijBJYdfeZ9ZNH7-29" edge="1">
          <mxGeometry relative="1" as="geometry">
            <mxPoint x="752" y="570" as="sourcePoint" />
          </mxGeometry>
        </mxCell>
        <mxCell id="zrPP4EijBJYdfeZ9ZNH7-86" value="Thành công" style="edgeLabel;html=1;align=center;verticalAlign=middle;resizable=0;points=[];" parent="zrPP4EijBJYdfeZ9ZNH7-70" vertex="1" connectable="0">
          <mxGeometry x="-0.3" relative="1" as="geometry">
            <mxPoint x="-39" y="1" as="offset" />
          </mxGeometry>
        </mxCell>
        <mxCell id="zrPP4EijBJYdfeZ9ZNH7-72" style="edgeStyle=orthogonalEdgeStyle;rounded=0;orthogonalLoop=1;jettySize=auto;html=1;exitX=0.5;exitY=1;exitDx=0;exitDy=0;" parent="1" source="zrPP4EijBJYdfeZ9ZNH7-71" target="zrPP4EijBJYdfeZ9ZNH7-49" edge="1">
          <mxGeometry relative="1" as="geometry" />
        </mxCell>
        <mxCell id="zrPP4EijBJYdfeZ9ZNH7-71" value="Thông tin người dung" style="shape=parallelogram;perimeter=parallelogramPerimeter;whiteSpace=wrap;html=1;fixedSize=1;" parent="1" vertex="1">
          <mxGeometry x="1306" y="180" width="170" height="60" as="geometry" />
        </mxCell>
        <mxCell id="zrPP4EijBJYdfeZ9ZNH7-74" style="edgeStyle=orthogonalEdgeStyle;rounded=0;orthogonalLoop=1;jettySize=auto;html=1;exitX=0.5;exitY=1;exitDx=0;exitDy=0;" parent="1" source="zrPP4EijBJYdfeZ9ZNH7-75" target="zrPP4EijBJYdfeZ9ZNH7-45" edge="1">
          <mxGeometry relative="1" as="geometry">
            <mxPoint x="1391" y="672" as="sourcePoint" />
          </mxGeometry>
        </mxCell>
        <mxCell id="zrPP4EijBJYdfeZ9ZNH7-76" style="edgeStyle=orthogonalEdgeStyle;rounded=0;orthogonalLoop=1;jettySize=auto;html=1;exitX=1;exitY=0.5;exitDx=0;exitDy=0;entryX=0.5;entryY=1;entryDx=0;entryDy=0;" parent="1" source="zrPP4EijBJYdfeZ9ZNH7-75" target="zrPP4EijBJYdfeZ9ZNH7-79" edge="1">
          <mxGeometry relative="1" as="geometry">
            <Array as="points">
              <mxPoint x="1551" y="655" />
            </Array>
          </mxGeometry>
        </mxCell>
        <mxCell id="zrPP4EijBJYdfeZ9ZNH7-77" value="Thành công" style="edgeLabel;html=1;align=center;verticalAlign=middle;resizable=0;points=[];" parent="zrPP4EijBJYdfeZ9ZNH7-76" vertex="1" connectable="0">
          <mxGeometry x="0.2515" y="2" relative="1" as="geometry">
            <mxPoint x="-117" y="193" as="offset" />
          </mxGeometry>
        </mxCell>
        <mxCell id="zrPP4EijBJYdfeZ9ZNH7-78" value="Thất bại" style="edgeLabel;html=1;align=center;verticalAlign=middle;resizable=0;points=[];" parent="zrPP4EijBJYdfeZ9ZNH7-76" vertex="1" connectable="0">
          <mxGeometry x="0.0097" y="-4" relative="1" as="geometry">
            <mxPoint x="25" y="-31" as="offset" />
          </mxGeometry>
        </mxCell>
        <mxCell id="zrPP4EijBJYdfeZ9ZNH7-75" value="Lưu thông tin tài&lt;div&gt;khoản&amp;nbsp;&lt;span style=&quot;background-color: initial;&quot;&gt;người dùng đã&lt;/span&gt;&lt;/div&gt;&lt;div&gt;&lt;span style=&quot;background-color: initial;&quot;&gt;chỉnh sửa vào cơ sở&lt;/span&gt;&lt;div&gt;dữ liệu&lt;/div&gt;&lt;/div&gt;" style="rhombus;whiteSpace=wrap;html=1;" parent="1" vertex="1">
          <mxGeometry x="1316" y="590" width="150" height="130" as="geometry" />
        </mxCell>
        <mxCell id="zrPP4EijBJYdfeZ9ZNH7-80" style="edgeStyle=orthogonalEdgeStyle;rounded=0;orthogonalLoop=1;jettySize=auto;html=1;exitX=0.5;exitY=0;exitDx=0;exitDy=0;entryX=1;entryY=0.5;entryDx=0;entryDy=0;" parent="1" source="zrPP4EijBJYdfeZ9ZNH7-79" target="zrPP4EijBJYdfeZ9ZNH7-49" edge="1">
          <mxGeometry relative="1" as="geometry">
            <Array as="points">
              <mxPoint x="1551" y="312" />
            </Array>
          </mxGeometry>
        </mxCell>
        <mxCell id="zrPP4EijBJYdfeZ9ZNH7-79" value="&amp;nbsp; &amp;nbsp; Thông báo chỉnh sửa&lt;div&gt;thông tin thất bại&lt;/div&gt;" style="shape=parallelogram;perimeter=parallelogramPerimeter;whiteSpace=wrap;html=1;fixedSize=1;" parent="1" vertex="1">
          <mxGeometry x="1466" y="384" width="176" height="60" as="geometry" />
        </mxCell>
        <mxCell id="zrPP4EijBJYdfeZ9ZNH7-85" style="edgeStyle=orthogonalEdgeStyle;rounded=0;orthogonalLoop=1;jettySize=auto;html=1;exitX=1;exitY=0.5;exitDx=0;exitDy=0;" parent="1" source="zrPP4EijBJYdfeZ9ZNH7-82" target="zrPP4EijBJYdfeZ9ZNH7-84" edge="1">
          <mxGeometry relative="1" as="geometry" />
        </mxCell>
        <mxCell id="zrPP4EijBJYdfeZ9ZNH7-87" value="Thất bại" style="edgeLabel;html=1;align=center;verticalAlign=middle;resizable=0;points=[];" parent="zrPP4EijBJYdfeZ9ZNH7-85" vertex="1" connectable="0">
          <mxGeometry x="-0.2899" relative="1" as="geometry">
            <mxPoint x="-1" y="17" as="offset" />
          </mxGeometry>
        </mxCell>
        <mxCell id="zrPP4EijBJYdfeZ9ZNH7-82" value="Lưu tài khoản&lt;div&gt;người&amp;nbsp;&lt;span style=&quot;background-color: initial;&quot;&gt;dùng vào cơ sở&lt;/span&gt;&lt;div&gt;dữ liệu&lt;/div&gt;&lt;/div&gt;" style="rhombus;whiteSpace=wrap;html=1;" parent="1" vertex="1">
          <mxGeometry x="677" y="485" width="150" height="130" as="geometry" />
        </mxCell>
        <mxCell id="zrPP4EijBJYdfeZ9ZNH7-88" style="edgeStyle=orthogonalEdgeStyle;rounded=0;orthogonalLoop=1;jettySize=auto;html=1;exitX=0.5;exitY=0;exitDx=0;exitDy=0;entryX=1;entryY=0.5;entryDx=0;entryDy=0;" parent="1" source="zrPP4EijBJYdfeZ9ZNH7-84" target="zrPP4EijBJYdfeZ9ZNH7-33" edge="1">
          <mxGeometry relative="1" as="geometry">
            <Array as="points">
              <mxPoint x="960" y="210" />
            </Array>
          </mxGeometry>
        </mxCell>
        <mxCell id="zrPP4EijBJYdfeZ9ZNH7-84" value="Thông báo tạo tài khoản&lt;div&gt;thất bại&lt;/div&gt;" style="shape=parallelogram;perimeter=parallelogramPerimeter;whiteSpace=wrap;html=1;fixedSize=1;" parent="1" vertex="1">
          <mxGeometry x="859" y="347.5" width="201" height="59" as="geometry" />
        </mxCell>
        <mxCell id="zrPP4EijBJYdfeZ9ZNH7-90" style="edgeStyle=orthogonalEdgeStyle;rounded=0;orthogonalLoop=1;jettySize=auto;html=1;exitX=0.5;exitY=1;exitDx=0;exitDy=0;" parent="1" source="zrPP4EijBJYdfeZ9ZNH7-89" target="zrPP4EijBJYdfeZ9ZNH7-61" edge="1">
          <mxGeometry relative="1" as="geometry" />
        </mxCell>
        <mxCell id="zrPP4EijBJYdfeZ9ZNH7-91" value="Thành công" style="edgeLabel;html=1;align=center;verticalAlign=middle;resizable=0;points=[];" parent="zrPP4EijBJYdfeZ9ZNH7-90" vertex="1" connectable="0">
          <mxGeometry x="-0.2" y="3" relative="1" as="geometry">
            <mxPoint x="-43" as="offset" />
          </mxGeometry>
        </mxCell>
        <mxCell id="zrPP4EijBJYdfeZ9ZNH7-93" style="edgeStyle=orthogonalEdgeStyle;rounded=0;orthogonalLoop=1;jettySize=auto;html=1;exitX=1;exitY=0.5;exitDx=0;exitDy=0;" parent="1" source="zrPP4EijBJYdfeZ9ZNH7-89" target="zrPP4EijBJYdfeZ9ZNH7-92" edge="1">
          <mxGeometry relative="1" as="geometry" />
        </mxCell>
        <mxCell id="zrPP4EijBJYdfeZ9ZNH7-95" value="Thất bại" style="edgeLabel;html=1;align=center;verticalAlign=middle;resizable=0;points=[];" parent="zrPP4EijBJYdfeZ9ZNH7-93" vertex="1" connectable="0">
          <mxGeometry x="-0.455" y="1" relative="1" as="geometry">
            <mxPoint x="16" y="15" as="offset" />
          </mxGeometry>
        </mxCell>
        <mxCell id="zrPP4EijBJYdfeZ9ZNH7-89" value="&amp;nbsp; &amp;nbsp;Lưu bài đăng vào cơ&lt;div&gt;sở dữ liệu&lt;/div&gt;" style="rhombus;whiteSpace=wrap;html=1;" parent="1" vertex="1">
          <mxGeometry x="279" y="1603" width="150" height="130" as="geometry" />
        </mxCell>
        <mxCell id="zrPP4EijBJYdfeZ9ZNH7-96" style="edgeStyle=orthogonalEdgeStyle;rounded=0;orthogonalLoop=1;jettySize=auto;html=1;exitX=0.5;exitY=0;exitDx=0;exitDy=0;" parent="1" source="zrPP4EijBJYdfeZ9ZNH7-92" target="zrPP4EijBJYdfeZ9ZNH7-65" edge="1">
          <mxGeometry relative="1" as="geometry">
            <Array as="points">
              <mxPoint x="574" y="1193" />
            </Array>
          </mxGeometry>
        </mxCell>
        <mxCell id="zrPP4EijBJYdfeZ9ZNH7-92" value="Thông báo đăng bài thất bại" style="shape=parallelogram;perimeter=parallelogramPerimeter;whiteSpace=wrap;html=1;fixedSize=1;" parent="1" vertex="1">
          <mxGeometry x="484" y="1383" width="180" height="60" as="geometry" />
        </mxCell>
        <mxCell id="I4O5xyEKgsiIxu2QFyqc-1" value="" style="ellipse;whiteSpace=wrap;html=1;aspect=fixed;" vertex="1" parent="1">
          <mxGeometry x="943" y="1085" width="30" height="30" as="geometry" />
        </mxCell>
        <mxCell id="I4O5xyEKgsiIxu2QFyqc-2" value="" style="endArrow=classic;html=1;rounded=0;entryX=0.5;entryY=0;entryDx=0;entryDy=0;" edge="1" parent="1" target="I4O5xyEKgsiIxu2QFyqc-1">
          <mxGeometry width="50" height="50" relative="1" as="geometry">
            <mxPoint x="958" y="1055" as="sourcePoint" />
            <mxPoint x="1158" y="985" as="targetPoint" />
          </mxGeometry>
        </mxCell>
        <mxCell id="I4O5xyEKgsiIxu2QFyqc-3" value="Start" style="text;html=1;align=center;verticalAlign=middle;whiteSpace=wrap;rounded=0;" vertex="1" parent="1">
          <mxGeometry x="928" y="1025" width="60" height="30" as="geometry" />
        </mxCell>
        <mxCell id="I4O5xyEKgsiIxu2QFyqc-4" value="" style="endArrow=classic;html=1;rounded=0;entryX=0.5;entryY=0;entryDx=0;entryDy=0;exitX=0.5;exitY=1;exitDx=0;exitDy=0;" edge="1" parent="1" source="I4O5xyEKgsiIxu2QFyqc-1">
          <mxGeometry width="50" height="50" relative="1" as="geometry">
            <mxPoint x="993" y="1265" as="sourcePoint" />
            <mxPoint x="958" y="1165" as="targetPoint" />
          </mxGeometry>
        </mxCell>
        <mxCell id="I4O5xyEKgsiIxu2QFyqc-5" style="edgeStyle=orthogonalEdgeStyle;rounded=0;orthogonalLoop=1;jettySize=auto;html=1;entryX=0;entryY=0.5;entryDx=0;entryDy=0;" edge="1" parent="1" source="I4O5xyEKgsiIxu2QFyqc-7" target="I4O5xyEKgsiIxu2QFyqc-15">
          <mxGeometry relative="1" as="geometry">
            <mxPoint x="898" y="1195" as="targetPoint" />
            <Array as="points">
              <mxPoint x="836" y="1366" />
              <mxPoint x="836" y="1195" />
            </Array>
          </mxGeometry>
        </mxCell>
        <mxCell id="I4O5xyEKgsiIxu2QFyqc-6" style="edgeStyle=orthogonalEdgeStyle;rounded=0;orthogonalLoop=1;jettySize=auto;html=1;" edge="1" parent="1" source="I4O5xyEKgsiIxu2QFyqc-7" target="I4O5xyEKgsiIxu2QFyqc-23">
          <mxGeometry relative="1" as="geometry" />
        </mxCell>
        <mxCell id="I4O5xyEKgsiIxu2QFyqc-7" value="Kiểm tra dữ liệu đầu vào" style="rhombus;whiteSpace=wrap;html=1;" vertex="1" parent="1">
          <mxGeometry x="888" y="1301" width="150" height="130" as="geometry" />
        </mxCell>
        <mxCell id="I4O5xyEKgsiIxu2QFyqc-9" value="không hợp lệ" style="text;html=1;align=center;verticalAlign=middle;whiteSpace=wrap;rounded=0;" vertex="1" parent="1">
          <mxGeometry x="771" y="1279" width="60" height="30" as="geometry" />
        </mxCell>
        <mxCell id="I4O5xyEKgsiIxu2QFyqc-10" style="edgeStyle=orthogonalEdgeStyle;rounded=0;orthogonalLoop=1;jettySize=auto;html=1;entryX=0.5;entryY=0;entryDx=0;entryDy=0;" edge="1" parent="1" source="I4O5xyEKgsiIxu2QFyqc-11" target="I4O5xyEKgsiIxu2QFyqc-13">
          <mxGeometry relative="1" as="geometry" />
        </mxCell>
        <mxCell id="I4O5xyEKgsiIxu2QFyqc-11" value="Reload trang" style="rounded=1;whiteSpace=wrap;html=1;" vertex="1" parent="1">
          <mxGeometry x="903" y="1780" width="120" height="60" as="geometry" />
        </mxCell>
        <mxCell id="I4O5xyEKgsiIxu2QFyqc-12" value="Hợp lệ" style="text;html=1;align=center;verticalAlign=middle;whiteSpace=wrap;rounded=0;" vertex="1" parent="1">
          <mxGeometry x="892" y="1467" width="60" height="30" as="geometry" />
        </mxCell>
        <mxCell id="I4O5xyEKgsiIxu2QFyqc-13" value="" style="ellipse;html=1;shape=endState;fillColor=#000000;strokeColor=#ff0000;" vertex="1" parent="1">
          <mxGeometry x="948" y="1924" width="30" height="30" as="geometry" />
        </mxCell>
        <mxCell id="I4O5xyEKgsiIxu2QFyqc-14" value="End" style="text;html=1;align=center;verticalAlign=middle;whiteSpace=wrap;rounded=0;" vertex="1" parent="1">
          <mxGeometry x="933" y="1970" width="60" height="30" as="geometry" />
        </mxCell>
        <mxCell id="I4O5xyEKgsiIxu2QFyqc-26" style="edgeStyle=orthogonalEdgeStyle;rounded=0;orthogonalLoop=1;jettySize=auto;html=1;exitX=0.5;exitY=1;exitDx=0;exitDy=0;" edge="1" parent="1" source="I4O5xyEKgsiIxu2QFyqc-15" target="I4O5xyEKgsiIxu2QFyqc-7">
          <mxGeometry relative="1" as="geometry" />
        </mxCell>
        <mxCell id="I4O5xyEKgsiIxu2QFyqc-15" value="&amp;nbsp; &amp;nbsp; Nhập nội dung chỉnh sửa&lt;div&gt;&amp;nbsp;bài đăng (có thể thêm&amp;nbsp;&lt;span style=&quot;background-color: initial;&quot;&gt;hoặc xóa&amp;nbsp;&lt;/span&gt;&lt;span style=&quot;background-color: initial;&quot;&gt;hình ảnh hoặc tệp)&lt;/span&gt;&lt;/div&gt;" style="shape=parallelogram;perimeter=parallelogramPerimeter;whiteSpace=wrap;html=1;fixedSize=1;" vertex="1" parent="1">
          <mxGeometry x="873" y="1165" width="180" height="60" as="geometry" />
        </mxCell>
        <mxCell id="I4O5xyEKgsiIxu2QFyqc-16" value="Sửa bài:" style="text;html=1;align=center;verticalAlign=middle;resizable=0;points=[];autosize=1;strokeColor=none;fillColor=none;" vertex="1" parent="1">
          <mxGeometry x="717" y="1025" width="63" height="26" as="geometry" />
        </mxCell>
        <mxCell id="I4O5xyEKgsiIxu2QFyqc-19" style="edgeStyle=orthogonalEdgeStyle;rounded=0;orthogonalLoop=1;jettySize=auto;html=1;exitX=0.5;exitY=1;exitDx=0;exitDy=0;" edge="1" parent="1" source="I4O5xyEKgsiIxu2QFyqc-23" target="I4O5xyEKgsiIxu2QFyqc-11">
          <mxGeometry relative="1" as="geometry" />
        </mxCell>
        <mxCell id="I4O5xyEKgsiIxu2QFyqc-20" value="Thành công" style="edgeLabel;html=1;align=center;verticalAlign=middle;resizable=0;points=[];" vertex="1" connectable="0" parent="I4O5xyEKgsiIxu2QFyqc-19">
          <mxGeometry x="-0.2" y="3" relative="1" as="geometry">
            <mxPoint x="-43" as="offset" />
          </mxGeometry>
        </mxCell>
        <mxCell id="I4O5xyEKgsiIxu2QFyqc-21" style="edgeStyle=orthogonalEdgeStyle;rounded=0;orthogonalLoop=1;jettySize=auto;html=1;exitX=1;exitY=0.5;exitDx=0;exitDy=0;" edge="1" parent="1" source="I4O5xyEKgsiIxu2QFyqc-23" target="I4O5xyEKgsiIxu2QFyqc-25">
          <mxGeometry relative="1" as="geometry" />
        </mxCell>
        <mxCell id="I4O5xyEKgsiIxu2QFyqc-22" value="Thất bại" style="edgeLabel;html=1;align=center;verticalAlign=middle;resizable=0;points=[];" vertex="1" connectable="0" parent="I4O5xyEKgsiIxu2QFyqc-21">
          <mxGeometry x="-0.455" y="1" relative="1" as="geometry">
            <mxPoint x="16" y="15" as="offset" />
          </mxGeometry>
        </mxCell>
        <mxCell id="I4O5xyEKgsiIxu2QFyqc-23" value="&amp;nbsp; &amp;nbsp;Cập nhật bài đăng&amp;nbsp;&lt;div&gt;vào cơ&lt;div&gt;sở dữ liệu&lt;/div&gt;&lt;/div&gt;" style="rhombus;whiteSpace=wrap;html=1;" vertex="1" parent="1">
          <mxGeometry x="888" y="1551" width="150" height="130" as="geometry" />
        </mxCell>
        <mxCell id="I4O5xyEKgsiIxu2QFyqc-24" style="edgeStyle=orthogonalEdgeStyle;rounded=0;orthogonalLoop=1;jettySize=auto;html=1;exitX=0.5;exitY=0;exitDx=0;exitDy=0;" edge="1" parent="1" source="I4O5xyEKgsiIxu2QFyqc-25" target="I4O5xyEKgsiIxu2QFyqc-15">
          <mxGeometry relative="1" as="geometry">
            <Array as="points">
              <mxPoint x="1178" y="1193" />
            </Array>
          </mxGeometry>
        </mxCell>
        <mxCell id="I4O5xyEKgsiIxu2QFyqc-25" value="Thông báo chỉnh sửa&lt;div&gt;thất&amp;nbsp;&lt;span style=&quot;background-color: initial;&quot;&gt;bại&lt;/span&gt;&lt;/div&gt;" style="shape=parallelogram;perimeter=parallelogramPerimeter;whiteSpace=wrap;html=1;fixedSize=1;" vertex="1" parent="1">
          <mxGeometry x="1088" y="1383" width="180" height="60" as="geometry" />
        </mxCell>
        <mxCell id="I4O5xyEKgsiIxu2QFyqc-27" value="" style="ellipse;whiteSpace=wrap;html=1;aspect=fixed;" vertex="1" parent="1">
          <mxGeometry x="1953" y="102" width="30" height="30" as="geometry" />
        </mxCell>
        <mxCell id="I4O5xyEKgsiIxu2QFyqc-28" value="" style="endArrow=classic;html=1;rounded=0;entryX=0.5;entryY=0;entryDx=0;entryDy=0;" edge="1" parent="1" target="I4O5xyEKgsiIxu2QFyqc-27">
          <mxGeometry width="50" height="50" relative="1" as="geometry">
            <mxPoint x="1968" y="72" as="sourcePoint" />
            <mxPoint x="2168" y="2" as="targetPoint" />
          </mxGeometry>
        </mxCell>
        <mxCell id="I4O5xyEKgsiIxu2QFyqc-29" value="Start" style="text;html=1;align=center;verticalAlign=middle;whiteSpace=wrap;rounded=0;" vertex="1" parent="1">
          <mxGeometry x="1938" y="42" width="60" height="30" as="geometry" />
        </mxCell>
        <mxCell id="I4O5xyEKgsiIxu2QFyqc-30" value="" style="endArrow=classic;html=1;rounded=0;entryX=0.5;entryY=0;entryDx=0;entryDy=0;exitX=0.5;exitY=1;exitDx=0;exitDy=0;" edge="1" parent="1" source="I4O5xyEKgsiIxu2QFyqc-27">
          <mxGeometry width="50" height="50" relative="1" as="geometry">
            <mxPoint x="2003" y="282" as="sourcePoint" />
            <mxPoint x="1968" y="182" as="targetPoint" />
          </mxGeometry>
        </mxCell>
        <mxCell id="I4O5xyEKgsiIxu2QFyqc-31" style="edgeStyle=orthogonalEdgeStyle;rounded=0;orthogonalLoop=1;jettySize=auto;html=1;entryX=0;entryY=0.5;entryDx=0;entryDy=0;" edge="1" parent="1" source="I4O5xyEKgsiIxu2QFyqc-33" target="I4O5xyEKgsiIxu2QFyqc-41">
          <mxGeometry relative="1" as="geometry">
            <mxPoint x="1908" y="212" as="targetPoint" />
            <Array as="points">
              <mxPoint x="1846" y="383" />
              <mxPoint x="1846" y="212" />
            </Array>
          </mxGeometry>
        </mxCell>
        <mxCell id="I4O5xyEKgsiIxu2QFyqc-32" style="edgeStyle=orthogonalEdgeStyle;rounded=0;orthogonalLoop=1;jettySize=auto;html=1;" edge="1" parent="1" source="I4O5xyEKgsiIxu2QFyqc-33" target="I4O5xyEKgsiIxu2QFyqc-47">
          <mxGeometry relative="1" as="geometry" />
        </mxCell>
        <mxCell id="I4O5xyEKgsiIxu2QFyqc-33" value="Kiểm tra dữ liệu đầu vào" style="rhombus;whiteSpace=wrap;html=1;" vertex="1" parent="1">
          <mxGeometry x="1898" y="318" width="150" height="130" as="geometry" />
        </mxCell>
        <mxCell id="I4O5xyEKgsiIxu2QFyqc-34" value="không hợp lệ" style="text;html=1;align=center;verticalAlign=middle;whiteSpace=wrap;rounded=0;" vertex="1" parent="1">
          <mxGeometry x="1781" y="296" width="60" height="30" as="geometry" />
        </mxCell>
        <mxCell id="I4O5xyEKgsiIxu2QFyqc-35" style="edgeStyle=orthogonalEdgeStyle;rounded=0;orthogonalLoop=1;jettySize=auto;html=1;entryX=0.5;entryY=0;entryDx=0;entryDy=0;" edge="1" parent="1" source="I4O5xyEKgsiIxu2QFyqc-36" target="I4O5xyEKgsiIxu2QFyqc-38">
          <mxGeometry relative="1" as="geometry" />
        </mxCell>
        <mxCell id="I4O5xyEKgsiIxu2QFyqc-36" value="Tắt form yêu cầu tạo nhóm" style="rounded=1;whiteSpace=wrap;html=1;" vertex="1" parent="1">
          <mxGeometry x="1913" y="797" width="120" height="60" as="geometry" />
        </mxCell>
        <mxCell id="I4O5xyEKgsiIxu2QFyqc-37" value="Hợp lệ" style="text;html=1;align=center;verticalAlign=middle;whiteSpace=wrap;rounded=0;" vertex="1" parent="1">
          <mxGeometry x="1902" y="484" width="60" height="30" as="geometry" />
        </mxCell>
        <mxCell id="I4O5xyEKgsiIxu2QFyqc-38" value="" style="ellipse;html=1;shape=endState;fillColor=#000000;strokeColor=#ff0000;" vertex="1" parent="1">
          <mxGeometry x="1958" y="941" width="30" height="30" as="geometry" />
        </mxCell>
        <mxCell id="I4O5xyEKgsiIxu2QFyqc-39" value="End" style="text;html=1;align=center;verticalAlign=middle;whiteSpace=wrap;rounded=0;" vertex="1" parent="1">
          <mxGeometry x="1943" y="987" width="60" height="30" as="geometry" />
        </mxCell>
        <mxCell id="I4O5xyEKgsiIxu2QFyqc-40" style="edgeStyle=orthogonalEdgeStyle;rounded=0;orthogonalLoop=1;jettySize=auto;html=1;exitX=0.5;exitY=1;exitDx=0;exitDy=0;" edge="1" parent="1" source="I4O5xyEKgsiIxu2QFyqc-41" target="I4O5xyEKgsiIxu2QFyqc-33">
          <mxGeometry relative="1" as="geometry" />
        </mxCell>
        <mxCell id="I4O5xyEKgsiIxu2QFyqc-41" value="Nhập tên nhóm và mục&lt;div&gt;đích tạo nhóm&lt;/div&gt;" style="shape=parallelogram;perimeter=parallelogramPerimeter;whiteSpace=wrap;html=1;fixedSize=1;" vertex="1" parent="1">
          <mxGeometry x="1883" y="182" width="180" height="60" as="geometry" />
        </mxCell>
        <mxCell id="I4O5xyEKgsiIxu2QFyqc-42" value="Tạo nhóm" style="text;html=1;align=center;verticalAlign=middle;resizable=0;points=[];autosize=1;strokeColor=none;fillColor=none;" vertex="1" parent="1">
          <mxGeometry x="1723" y="42" width="72" height="26" as="geometry" />
        </mxCell>
        <mxCell id="I4O5xyEKgsiIxu2QFyqc-43" style="edgeStyle=orthogonalEdgeStyle;rounded=0;orthogonalLoop=1;jettySize=auto;html=1;exitX=0.5;exitY=1;exitDx=0;exitDy=0;" edge="1" parent="1" source="I4O5xyEKgsiIxu2QFyqc-47" target="I4O5xyEKgsiIxu2QFyqc-36">
          <mxGeometry relative="1" as="geometry" />
        </mxCell>
        <mxCell id="I4O5xyEKgsiIxu2QFyqc-44" value="Thành công" style="edgeLabel;html=1;align=center;verticalAlign=middle;resizable=0;points=[];" vertex="1" connectable="0" parent="I4O5xyEKgsiIxu2QFyqc-43">
          <mxGeometry x="-0.2" y="3" relative="1" as="geometry">
            <mxPoint x="-43" as="offset" />
          </mxGeometry>
        </mxCell>
        <mxCell id="I4O5xyEKgsiIxu2QFyqc-45" style="edgeStyle=orthogonalEdgeStyle;rounded=0;orthogonalLoop=1;jettySize=auto;html=1;exitX=1;exitY=0.5;exitDx=0;exitDy=0;" edge="1" parent="1" source="I4O5xyEKgsiIxu2QFyqc-47" target="I4O5xyEKgsiIxu2QFyqc-49">
          <mxGeometry relative="1" as="geometry" />
        </mxCell>
        <mxCell id="I4O5xyEKgsiIxu2QFyqc-46" value="Thất bại" style="edgeLabel;html=1;align=center;verticalAlign=middle;resizable=0;points=[];" vertex="1" connectable="0" parent="I4O5xyEKgsiIxu2QFyqc-45">
          <mxGeometry x="-0.455" y="1" relative="1" as="geometry">
            <mxPoint x="16" y="15" as="offset" />
          </mxGeometry>
        </mxCell>
        <mxCell id="I4O5xyEKgsiIxu2QFyqc-47" value="Gửi yêu cầu tạo nhóm&lt;div&gt;đến admin&lt;/div&gt;" style="rhombus;whiteSpace=wrap;html=1;" vertex="1" parent="1">
          <mxGeometry x="1898" y="568" width="150" height="130" as="geometry" />
        </mxCell>
        <mxCell id="I4O5xyEKgsiIxu2QFyqc-48" style="edgeStyle=orthogonalEdgeStyle;rounded=0;orthogonalLoop=1;jettySize=auto;html=1;exitX=0.5;exitY=0;exitDx=0;exitDy=0;" edge="1" parent="1" source="I4O5xyEKgsiIxu2QFyqc-49" target="I4O5xyEKgsiIxu2QFyqc-41">
          <mxGeometry relative="1" as="geometry">
            <Array as="points">
              <mxPoint x="2188" y="210" />
            </Array>
          </mxGeometry>
        </mxCell>
        <mxCell id="I4O5xyEKgsiIxu2QFyqc-49" value="Thông báo gửi yêu cầu&lt;div&gt;thất bại&lt;/div&gt;" style="shape=parallelogram;perimeter=parallelogramPerimeter;whiteSpace=wrap;html=1;fixedSize=1;" vertex="1" parent="1">
          <mxGeometry x="2098" y="400" width="180" height="60" as="geometry" />
        </mxCell>
        <mxCell id="I4O5xyEKgsiIxu2QFyqc-50" value="" style="ellipse;whiteSpace=wrap;html=1;aspect=fixed;" vertex="1" parent="1">
          <mxGeometry x="1609" y="1074" width="30" height="30" as="geometry" />
        </mxCell>
        <mxCell id="I4O5xyEKgsiIxu2QFyqc-51" value="" style="endArrow=classic;html=1;rounded=0;entryX=0.5;entryY=0;entryDx=0;entryDy=0;" edge="1" parent="1" target="I4O5xyEKgsiIxu2QFyqc-50">
          <mxGeometry width="50" height="50" relative="1" as="geometry">
            <mxPoint x="1624" y="1044" as="sourcePoint" />
            <mxPoint x="1824" y="974" as="targetPoint" />
          </mxGeometry>
        </mxCell>
        <mxCell id="I4O5xyEKgsiIxu2QFyqc-52" value="Start" style="text;html=1;align=center;verticalAlign=middle;whiteSpace=wrap;rounded=0;" vertex="1" parent="1">
          <mxGeometry x="1594" y="1014" width="60" height="30" as="geometry" />
        </mxCell>
        <mxCell id="I4O5xyEKgsiIxu2QFyqc-53" value="" style="endArrow=classic;html=1;rounded=0;entryX=0.5;entryY=0;entryDx=0;entryDy=0;exitX=0.5;exitY=1;exitDx=0;exitDy=0;" edge="1" parent="1" source="I4O5xyEKgsiIxu2QFyqc-50">
          <mxGeometry width="50" height="50" relative="1" as="geometry">
            <mxPoint x="1659" y="1254" as="sourcePoint" />
            <mxPoint x="1624" y="1154" as="targetPoint" />
          </mxGeometry>
        </mxCell>
        <mxCell id="I4O5xyEKgsiIxu2QFyqc-54" style="edgeStyle=orthogonalEdgeStyle;rounded=0;orthogonalLoop=1;jettySize=auto;html=1;entryX=0;entryY=0.5;entryDx=0;entryDy=0;" edge="1" parent="1" source="I4O5xyEKgsiIxu2QFyqc-56" target="I4O5xyEKgsiIxu2QFyqc-64">
          <mxGeometry relative="1" as="geometry">
            <mxPoint x="1564" y="1184" as="targetPoint" />
            <Array as="points">
              <mxPoint x="1842" y="1355" />
              <mxPoint x="1842" y="1184" />
            </Array>
          </mxGeometry>
        </mxCell>
        <mxCell id="I4O5xyEKgsiIxu2QFyqc-55" style="edgeStyle=orthogonalEdgeStyle;rounded=0;orthogonalLoop=1;jettySize=auto;html=1;" edge="1" parent="1" source="I4O5xyEKgsiIxu2QFyqc-56" target="I4O5xyEKgsiIxu2QFyqc-70">
          <mxGeometry relative="1" as="geometry" />
        </mxCell>
        <mxCell id="I4O5xyEKgsiIxu2QFyqc-56" value="Kiểm tra dữ liệu đầu vào" style="rhombus;whiteSpace=wrap;html=1;" vertex="1" parent="1">
          <mxGeometry x="1554" y="1290" width="150" height="130" as="geometry" />
        </mxCell>
        <mxCell id="I4O5xyEKgsiIxu2QFyqc-57" value="không hợp lệ" style="text;html=1;align=center;verticalAlign=middle;whiteSpace=wrap;rounded=0;" vertex="1" parent="1">
          <mxGeometry x="1853" y="1266" width="60" height="30" as="geometry" />
        </mxCell>
        <mxCell id="I4O5xyEKgsiIxu2QFyqc-58" style="edgeStyle=orthogonalEdgeStyle;rounded=0;orthogonalLoop=1;jettySize=auto;html=1;entryX=0.5;entryY=0;entryDx=0;entryDy=0;" edge="1" parent="1" source="I4O5xyEKgsiIxu2QFyqc-59" target="I4O5xyEKgsiIxu2QFyqc-61">
          <mxGeometry relative="1" as="geometry" />
        </mxCell>
        <mxCell id="I4O5xyEKgsiIxu2QFyqc-59" value="Tắt các form chỉnh sửa nhóm" style="rounded=1;whiteSpace=wrap;html=1;" vertex="1" parent="1">
          <mxGeometry x="1569" y="1769" width="120" height="60" as="geometry" />
        </mxCell>
        <mxCell id="I4O5xyEKgsiIxu2QFyqc-60" value="Hợp lệ" style="text;html=1;align=center;verticalAlign=middle;whiteSpace=wrap;rounded=0;" vertex="1" parent="1">
          <mxGeometry x="1558" y="1456" width="60" height="30" as="geometry" />
        </mxCell>
        <mxCell id="I4O5xyEKgsiIxu2QFyqc-61" value="" style="ellipse;html=1;shape=endState;fillColor=#000000;strokeColor=#ff0000;" vertex="1" parent="1">
          <mxGeometry x="1614" y="1913" width="30" height="30" as="geometry" />
        </mxCell>
        <mxCell id="I4O5xyEKgsiIxu2QFyqc-62" value="End" style="text;html=1;align=center;verticalAlign=middle;whiteSpace=wrap;rounded=0;" vertex="1" parent="1">
          <mxGeometry x="1599" y="1959" width="60" height="30" as="geometry" />
        </mxCell>
        <mxCell id="I4O5xyEKgsiIxu2QFyqc-63" style="edgeStyle=orthogonalEdgeStyle;rounded=0;orthogonalLoop=1;jettySize=auto;html=1;exitX=0.5;exitY=1;exitDx=0;exitDy=0;" edge="1" parent="1" source="I4O5xyEKgsiIxu2QFyqc-64" target="I4O5xyEKgsiIxu2QFyqc-56">
          <mxGeometry relative="1" as="geometry" />
        </mxCell>
        <mxCell id="I4O5xyEKgsiIxu2QFyqc-64" value="Nhập tên nhóm, mô tả&lt;div&gt;nhóm hoặc chọn ảnh banner&amp;nbsp;&lt;/div&gt;" style="shape=parallelogram;perimeter=parallelogramPerimeter;whiteSpace=wrap;html=1;fixedSize=1;" vertex="1" parent="1">
          <mxGeometry x="1539" y="1154" width="180" height="60" as="geometry" />
        </mxCell>
        <mxCell id="I4O5xyEKgsiIxu2QFyqc-65" value="Chỉnh sửa nhóm" style="text;html=1;align=center;verticalAlign=middle;resizable=0;points=[];autosize=1;strokeColor=none;fillColor=none;" vertex="1" parent="1">
          <mxGeometry x="1362" y="1014" width="107" height="26" as="geometry" />
        </mxCell>
        <mxCell id="I4O5xyEKgsiIxu2QFyqc-66" style="edgeStyle=orthogonalEdgeStyle;rounded=0;orthogonalLoop=1;jettySize=auto;html=1;exitX=0.5;exitY=1;exitDx=0;exitDy=0;" edge="1" parent="1" source="I4O5xyEKgsiIxu2QFyqc-70" target="I4O5xyEKgsiIxu2QFyqc-59">
          <mxGeometry relative="1" as="geometry" />
        </mxCell>
        <mxCell id="I4O5xyEKgsiIxu2QFyqc-67" value="Thành công" style="edgeLabel;html=1;align=center;verticalAlign=middle;resizable=0;points=[];" vertex="1" connectable="0" parent="I4O5xyEKgsiIxu2QFyqc-66">
          <mxGeometry x="-0.2" y="3" relative="1" as="geometry">
            <mxPoint x="-43" as="offset" />
          </mxGeometry>
        </mxCell>
        <mxCell id="I4O5xyEKgsiIxu2QFyqc-68" style="edgeStyle=orthogonalEdgeStyle;rounded=0;orthogonalLoop=1;jettySize=auto;html=1;exitX=1;exitY=0.5;exitDx=0;exitDy=0;" edge="1" parent="1" source="I4O5xyEKgsiIxu2QFyqc-70" target="I4O5xyEKgsiIxu2QFyqc-72">
          <mxGeometry relative="1" as="geometry">
            <Array as="points">
              <mxPoint x="1409" y="1605" />
            </Array>
          </mxGeometry>
        </mxCell>
        <mxCell id="I4O5xyEKgsiIxu2QFyqc-69" value="Thất bại" style="edgeLabel;html=1;align=center;verticalAlign=middle;resizable=0;points=[];" vertex="1" connectable="0" parent="I4O5xyEKgsiIxu2QFyqc-68">
          <mxGeometry x="-0.455" y="1" relative="1" as="geometry">
            <mxPoint x="-82" y="13" as="offset" />
          </mxGeometry>
        </mxCell>
        <mxCell id="I4O5xyEKgsiIxu2QFyqc-70" value="Gửi thông tin cập nhật&lt;div&gt;cho máy chủ&lt;/div&gt;" style="rhombus;whiteSpace=wrap;html=1;" vertex="1" parent="1">
          <mxGeometry x="1554" y="1540" width="150" height="130" as="geometry" />
        </mxCell>
        <mxCell id="I4O5xyEKgsiIxu2QFyqc-71" style="edgeStyle=orthogonalEdgeStyle;rounded=0;orthogonalLoop=1;jettySize=auto;html=1;exitX=0.5;exitY=0;exitDx=0;exitDy=0;" edge="1" parent="1" source="I4O5xyEKgsiIxu2QFyqc-72" target="I4O5xyEKgsiIxu2QFyqc-64">
          <mxGeometry relative="1" as="geometry">
            <Array as="points">
              <mxPoint x="1409" y="1182" />
            </Array>
          </mxGeometry>
        </mxCell>
        <mxCell id="I4O5xyEKgsiIxu2QFyqc-72" value="Thông báo chỉnh sửa&lt;div&gt;thông tin nhóm thất bại&lt;/div&gt;" style="shape=parallelogram;perimeter=parallelogramPerimeter;whiteSpace=wrap;html=1;fixedSize=1;" vertex="1" parent="1">
          <mxGeometry x="1319" y="1316" width="180" height="60" as="geometry" />
        </mxCell>
      </root>
    </mxGraphModel>
  </diagram>
</mxfile>
